# xmcd
#
# Track frame offsets:
#	150
#	25992
#	51268
#	69344
#	98421
#	118092
#	153719
#	180245
#	204287
#	222302
#	250853
#	276941
#	299782
#
# Disc length: 4435 seconds
#
# Revision: 2
# Processed by: cddbd v1.5.1PL0 Copyright (c) Steve Scherf et al.
# Submitted via: EZCDDA 4.3.2
#
DISCID=c011510d
DTITLE=ActiveX (Игнатов Владимир) - Эволюция
DYEAR=1900
DGENRE=
TTITLE0=Физическая реальность
TTITLE1=Хамелеон
TTITLE2=Bomba
TTITLE3=Alternative Drum and Bass
TTITLE4=Гипер терминал
TTITLE5=Не оглядывайся назад
TTITLE6=Революция
TTITLE7=I see you
TTITLE8=Сквозь вселенную
TTITLE9=Ретрансляция
TTITLE10=Судный день
TTITLE11=Последняя фантазия
TTITLE12=Перегрузка
EXTD=
EXTT0=
EXTT1=
EXTT2=
EXTT3=
EXTT4=
EXTT5=
EXTT6=
EXTT7=
EXTT8=
EXTT9=
EXTT10=
EXTT11=
EXTT12=
PLAYORDER=
